<svg width="139" height="35" viewBox="0 0 139 35" fill="none" xmlns="http://www.w3.org/2000/svg">
<g clip-path="url(#clip0_8_4820)">
<path d="M16.5081 0.25C9.72282 0.25 7.73838 0.257 7.35264 0.289C5.96018 0.40475 5.09371 0.624 4.14974 1.094C3.42226 1.45525 2.84853 1.874 2.28229 2.461C1.25108 3.5315 0.626094 4.8485 0.399851 6.414C0.289854 7.174 0.257855 7.329 0.251355 11.211C0.248855 12.505 0.251355 14.208 0.251355 16.4923C0.251355 23.2723 0.258855 25.2547 0.291354 25.6397C0.403851 26.9947 0.616344 27.8472 1.06633 28.7798C1.9263 30.5648 3.56875 31.9048 5.5037 32.4048C6.17368 32.5773 6.91365 32.6723 7.86363 32.7173C8.26611 32.7348 12.3685 32.7472 16.4734 32.7472C20.5782 32.7472 24.6831 32.7423 25.0756 32.7223C26.1756 32.6705 26.8143 32.5847 27.5205 32.4022C29.468 31.8997 31.0804 30.5798 31.9579 28.7698C32.3991 27.8598 32.6229 26.9748 32.7241 25.6905C32.7461 25.4105 32.7554 20.9463 32.7554 16.488C32.7554 12.029 32.7454 7.573 32.7234 7.293C32.6209 5.988 32.3971 5.1105 31.9416 4.183C31.5679 3.42375 31.1529 2.85675 30.5504 2.277C29.4752 1.25 28.1603 0.625 26.5933 0.399C25.8341 0.28925 25.6828 0.25675 21.798 0.25H16.5081Z" fill="url(#paint0_radial_8_4820)"/>
<path d="M16.5081 0.25C9.72282 0.25 7.73838 0.257 7.35264 0.289C5.96018 0.40475 5.09371 0.624 4.14974 1.094C3.42226 1.45525 2.84853 1.874 2.28229 2.461C1.25108 3.5315 0.626094 4.8485 0.399851 6.414C0.289854 7.174 0.257855 7.329 0.251355 11.211C0.248855 12.505 0.251355 14.208 0.251355 16.4923C0.251355 23.2723 0.258855 25.2547 0.291354 25.6397C0.403851 26.9947 0.616344 27.8472 1.06633 28.7798C1.9263 30.5648 3.56875 31.9048 5.5037 32.4048C6.17368 32.5773 6.91365 32.6723 7.86363 32.7173C8.26611 32.7348 12.3685 32.7472 16.4734 32.7472C20.5782 32.7472 24.6831 32.7423 25.0756 32.7223C26.1756 32.6705 26.8143 32.5847 27.5205 32.4022C29.468 31.8997 31.0804 30.5798 31.9579 28.7698C32.3991 27.8598 32.6229 26.9748 32.7241 25.6905C32.7461 25.4105 32.7554 20.9463 32.7554 16.488C32.7554 12.029 32.7454 7.573 32.7234 7.293C32.6209 5.988 32.3971 5.1105 31.9416 4.183C31.5679 3.42375 31.1529 2.85675 30.5504 2.277C29.4752 1.25 28.1603 0.625 26.5933 0.399C25.8341 0.28925 25.6828 0.25675 21.798 0.25H16.5081Z" fill="url(#paint1_radial_8_4820)"/>
<path d="M16.5004 4.5C13.2415 4.5 12.8325 4.51425 11.5525 4.5725C10.2751 4.631 9.40311 4.83325 8.64013 5.13C7.8509 5.4365 7.18142 5.8465 6.51444 6.51375C5.84697 7.18075 5.43698 7.85025 5.12949 8.63925C4.832 9.4025 4.6295 10.2748 4.572 11.5518C4.51476 12.8318 4.49976 13.241 4.49976 16.5C4.49976 19.759 4.51426 20.1668 4.57225 21.4468C4.631 22.7243 4.83325 23.5962 5.12974 24.3592C5.43648 25.1485 5.84646 25.818 6.51369 26.485C7.18042 27.1525 7.8499 27.5635 8.63863 27.87C9.40211 28.1668 10.2743 28.369 11.5515 28.4275C12.8315 28.4857 13.2402 28.5 16.4989 28.5C19.758 28.5 20.1658 28.4857 21.4457 28.4275C22.7232 28.369 23.5962 28.1668 24.3597 27.87C25.1486 27.5635 25.8171 27.1525 26.4838 26.485C27.1513 25.818 27.5613 25.1485 27.8688 24.3595C28.1638 23.5963 28.3663 22.724 28.4263 21.447C28.4838 20.167 28.4988 19.759 28.4988 16.5C28.4988 13.241 28.4838 12.832 28.4263 11.552C28.3663 10.2745 28.1638 9.4025 27.8688 8.6395C27.5613 7.85025 27.1513 7.18075 26.4838 6.51375C25.8164 5.84625 25.1489 5.43625 24.3589 5.13C23.5939 4.83325 22.7215 4.631 21.444 4.5725C20.164 4.51425 19.7565 4.5 16.4966 4.5H16.5004ZM15.4239 6.6625C15.7434 6.662 16.0999 6.6625 16.5004 6.6625C19.7043 6.6625 20.084 6.674 21.3492 6.7315C22.5192 6.785 23.1542 6.9805 23.5772 7.14475C24.1372 7.36225 24.5364 7.62225 24.9561 8.04225C25.3761 8.46225 25.6361 8.86225 25.8541 9.42225C26.0184 9.84475 26.2141 10.4797 26.2673 11.6497C26.3248 12.9147 26.3373 13.2947 26.3373 16.4972C26.3373 19.6997 26.3248 20.0797 26.2673 21.3447C26.2138 22.5147 26.0184 23.1498 25.8541 23.5723C25.6366 24.1323 25.3761 24.531 24.9561 24.9508C24.5361 25.3708 24.1374 25.6307 23.5772 25.8482C23.1547 26.0132 22.5192 26.2082 21.3492 26.2617C20.0843 26.3192 19.7043 26.3318 16.5004 26.3318C13.2962 26.3318 12.9165 26.3192 11.6515 26.2617C10.4816 26.2077 9.84659 26.0122 9.42336 25.848C8.86337 25.6305 8.46339 25.3705 8.0434 24.9505C7.62341 24.5305 7.36342 24.1315 7.14543 23.5713C6.98118 23.1488 6.78544 22.5137 6.73219 21.3438C6.67469 20.0788 6.66319 19.6987 6.66319 16.4942C6.66319 13.2897 6.67469 12.9118 6.73219 11.6468C6.78569 10.4768 6.98118 9.84175 7.14543 9.41875C7.36292 8.85875 7.62341 8.45875 8.0434 8.03875C8.46339 7.61875 8.86337 7.35875 9.42336 7.14075C9.84634 6.97575 10.4816 6.78075 11.6515 6.727C12.7585 6.677 13.1875 6.662 15.4239 6.6595V6.6625ZM22.9057 8.655C22.1107 8.655 21.4657 9.29925 21.4657 10.0945C21.4657 10.8895 22.1107 11.5345 22.9057 11.5345C23.7007 11.5345 24.3457 10.8895 24.3457 10.0945C24.3457 9.2995 23.7007 8.655 22.9057 8.655ZM16.5004 10.3375C13.0972 10.3375 10.3381 13.0968 10.3381 16.5C10.3381 19.9032 13.0972 22.6612 16.5004 22.6612C19.9035 22.6612 22.6617 19.9032 22.6617 16.5C22.6617 13.0968 19.9035 10.3375 16.5004 10.3375ZM16.5004 12.5C18.7093 12.5 20.5003 14.2908 20.5003 16.5C20.5003 18.709 18.7093 20.5 16.5004 20.5C14.2912 20.5 12.5005 18.709 12.5005 16.5C12.5005 14.2908 14.2912 12.5 16.5004 12.5Z" fill="white"/>
</g>
<path d="M43.2492 6.22034C41.1843 7.07982 38.9143 9.50797 38.1974 12.5558C37.2894 16.4176 41.0678 18.0506 41.3777 17.5151C41.7425 16.886 40.7007 16.6732 40.4862 14.6696C40.2091 12.0817 41.419 9.19001 42.9416 7.92123C43.2247 7.68551 43.2112 8.0136 43.2112 8.62047C43.2112 9.7057 43.1509 19.4479 43.1509 21.4811C43.1509 24.2322 43.0366 25.101 42.8314 25.9595C42.6235 26.8294 42.2891 27.4173 42.5425 27.6437C42.8255 27.897 44.0339 27.2945 44.7335 26.3236C45.5724 25.1591 45.866 23.7607 45.9188 22.242C45.9824 20.4112 45.9797 17.5062 45.9824 15.8493C45.985 14.3295 46.0082 9.87951 45.9557 7.20431C45.9428 6.54814 44.1127 5.85972 43.2491 6.21954M116.573 19.0956C116.506 20.5259 116.188 21.6439 115.793 22.4324C115.028 23.959 113.441 24.433 112.767 22.2385C112.399 21.0422 112.382 19.0444 112.646 17.3751C112.915 15.6745 113.666 14.3902 114.908 14.506C116.134 14.6205 116.708 16.1913 116.573 19.0956ZM95.9073 27.9694C95.8907 30.3459 95.5146 32.4295 94.708 33.0347C93.564 33.8929 92.0264 33.2492 92.3447 31.515C92.6265 29.9805 93.9588 28.4133 95.9106 26.4985C95.9106 26.4985 95.9146 26.9351 95.9073 27.9694ZM95.5949 19.0818C95.5249 20.3845 95.1853 21.6932 94.8148 22.4326C94.05 23.9592 92.451 24.4364 91.7884 22.2387C91.3354 20.7371 91.4439 18.7937 91.6681 17.5691C91.9589 15.9803 92.664 14.5064 93.9302 14.5064C95.1614 14.5064 95.7684 15.8494 95.5949 19.0818ZM83.6232 19.0619C83.5481 20.4415 83.2775 21.5949 82.8431 22.4326C82.0572 23.9487 80.5025 24.4295 79.8168 22.2387C79.3225 20.6589 79.4907 18.5049 79.6964 17.3413C80.0015 15.6146 80.7657 14.3904 81.9586 14.5064C83.1839 14.6254 83.7796 16.1913 83.6232 19.0619ZM138.487 20.6734C138.187 20.6734 138.05 20.9804 137.937 21.4972C137.545 23.2942 137.133 23.7 136.601 23.7C136.007 23.7 135.473 22.8102 135.336 21.029C135.228 19.6284 135.246 17.0499 135.384 14.485C135.412 13.958 135.266 13.4365 133.844 12.923C133.232 12.7022 132.343 12.377 131.901 13.4396C130.65 16.4417 130.16 18.8251 130.045 19.7933C130.039 19.8434 129.978 19.8536 129.967 19.7366C129.893 18.9611 129.729 17.5519 129.709 14.5912C129.705 14.0135 129.582 13.5218 128.941 13.1192C128.525 12.858 127.261 12.396 126.806 12.9457C126.412 13.3952 125.956 14.6048 125.482 16.0388C125.096 17.2042 124.828 17.9926 124.828 17.9926C124.828 17.9926 124.833 14.848 124.837 13.6552C124.839 13.2052 124.529 13.0553 124.435 13.0281C124.014 12.9065 123.184 12.7034 122.832 12.7034C122.397 12.7034 122.29 12.945 122.29 13.2971C122.29 13.3432 122.222 17.4373 122.222 20.3C122.222 20.4244 122.222 20.5601 122.223 20.7042C121.983 22.0199 121.203 23.8061 120.355 23.8061C119.506 23.8061 119.105 23.0593 119.105 19.6465C119.105 17.6555 119.165 16.7897 119.195 15.3497C119.212 14.5203 119.245 13.8834 119.243 13.7389C119.237 13.2956 118.466 13.0722 118.108 12.9896C117.747 12.9064 117.434 12.8741 117.19 12.888C116.844 12.9074 116.599 13.1332 116.599 13.4437C116.599 13.6102 116.601 13.9268 116.601 13.9268C116.155 13.2303 115.438 12.7455 114.961 12.605C113.676 12.2256 112.336 12.5618 111.324 13.9688C110.521 15.0868 110.036 16.3531 109.846 18.1724C109.706 19.5024 109.752 20.8511 109.999 21.9917C109.7 23.2788 109.144 23.8061 108.536 23.8061C107.652 23.8061 107.012 22.372 107.086 19.892C107.135 18.2607 107.463 17.116 107.822 15.4598C107.975 14.7538 107.851 14.3842 107.539 14.03C107.253 13.7051 106.644 13.5391 105.768 13.7432C105.144 13.8888 104.252 14.0453 103.436 14.1656C103.436 14.1656 103.485 13.9702 103.526 13.6257C103.738 11.8193 101.764 11.9659 101.134 12.5428C100.758 12.8873 100.502 13.2936 100.405 14.0241C100.251 15.1833 101.202 15.73 101.202 15.73C100.89 17.1499 100.125 19.0048 99.3357 20.3459C98.9129 21.0644 98.5894 21.5968 98.1719 22.1628C98.1703 21.952 98.1692 21.7413 98.1684 21.5315C98.1589 18.5463 98.1988 16.1968 98.2165 15.35C98.2336 14.5206 98.2671 13.9006 98.2652 13.756C98.2605 13.4318 98.0701 13.3094 97.6741 13.1544C97.324 13.0173 96.91 12.9224 96.4805 12.8893C95.9385 12.8472 95.6119 13.1331 95.6204 13.4712C95.6221 13.535 95.6221 13.9269 95.6221 13.9269C95.1763 13.2304 94.4594 12.7456 93.9824 12.6051C92.6976 12.2258 91.357 12.562 90.3458 13.969C89.5423 15.087 89.016 16.6558 88.8669 18.1586C88.728 19.5593 88.7537 20.7495 88.943 21.7522C88.7387 22.7563 88.1514 23.8062 87.4872 23.8062C86.6382 23.8062 86.1551 23.0595 86.1551 19.6466C86.1551 17.6556 86.2152 16.7899 86.2447 15.35C86.2619 14.5206 86.295 13.8835 86.2931 13.7391C86.2869 13.2959 85.5161 13.0725 85.1575 12.9898C84.7822 12.9035 84.4582 12.8717 84.2094 12.89C83.8812 12.9143 83.6504 13.2066 83.6504 13.4246V13.9269C83.2047 13.2304 82.4877 12.7456 82.0107 12.6051C80.726 12.2258 79.3928 12.5675 78.3741 13.969C77.7098 14.8828 77.172 15.8959 76.8953 18.1387C76.8153 18.7868 76.7799 19.3937 76.7845 19.961C76.5196 21.5719 75.3497 23.4286 74.3926 23.4286C73.8326 23.4286 73.2992 22.3485 73.2992 20.0464C73.2992 16.98 73.4901 12.6141 73.5223 12.1933C73.5223 12.1933 74.7315 12.1728 74.9657 12.1701C75.5689 12.1635 76.1152 12.1777 76.9185 12.1369C77.3215 12.1164 77.7097 10.6784 77.2938 10.5005C77.1053 10.4199 75.7732 10.3494 75.2451 10.3382C74.801 10.3282 73.5648 10.2372 73.5648 10.2372C73.5648 10.2372 73.6757 7.33931 73.7015 7.03318C73.7234 6.77804 73.3914 6.64667 73.2011 6.56696C72.7382 6.37228 72.324 6.27906 71.8331 6.17842C71.1549 6.03929 70.8472 6.17539 70.7871 6.7446C70.6966 7.60848 70.6497 10.1388 70.6497 10.1388C70.152 10.1388 68.4519 10.042 67.954 10.042C67.4914 10.042 66.9922 12.0202 67.6317 12.0445C68.3675 12.0729 69.6497 12.0974 70.4997 12.1229C70.4997 12.1229 70.4619 16.5607 70.4619 17.9308C70.4619 18.0766 70.4632 18.217 70.4634 18.3532C69.9956 20.778 68.3478 22.0878 68.3478 22.0878C68.7016 20.4836 67.9788 19.279 66.6767 18.2593C66.197 17.8835 65.2499 17.1721 64.1903 16.3926C64.1903 16.3926 64.804 15.7911 65.3483 14.5811C65.7339 13.724 65.7506 12.7431 64.804 12.5268C63.2401 12.1691 61.9506 13.3113 61.5659 14.5306C61.2679 15.4752 61.4269 16.1761 62.0107 16.9042C62.0533 16.9574 62.0995 17.0118 62.1472 17.0665C61.7942 17.7431 61.3092 18.6541 60.8984 19.3606C59.7583 21.322 58.8971 22.8735 58.2462 22.8735C57.7259 22.8735 57.7329 21.2983 57.7329 19.8236C57.7329 18.5522 57.8273 16.6408 57.9027 14.6618C57.9276 14.0073 57.5985 13.6345 57.0468 13.2968C56.7116 13.0916 55.9962 12.6882 55.5819 12.6882C54.9617 12.6882 53.1725 12.7721 51.4819 17.635C51.2688 18.248 50.8503 19.3648 50.8503 19.3648L50.8863 13.517C50.8863 13.3799 50.8128 13.2473 50.6447 13.1566C50.3598 13.0028 49.5989 12.6882 48.9223 12.6882C48.6 12.6882 48.4391 12.8373 48.4391 13.1345L48.3801 22.2835C48.3801 22.9786 48.3983 23.7896 48.4674 24.1443C48.5363 24.4994 48.6479 24.7883 48.786 24.9602C48.924 25.1318 49.0836 25.2626 49.3467 25.3166C49.5916 25.3668 50.9326 25.538 51.0023 25.0284C51.0859 24.4177 51.0891 23.7571 51.7932 21.2935C52.8895 17.4579 54.3188 15.5865 54.9907 14.9218C55.1082 14.8057 55.2423 14.7987 55.2359 14.9889C55.2072 15.8298 55.1063 17.931 55.0384 19.7162C54.8564 24.4935 55.7304 25.3789 56.9793 25.3789C57.9349 25.3789 59.2818 24.4349 60.7257 22.0451C61.6258 20.5558 62.4998 19.0955 63.1278 18.043C63.5654 18.4458 64.0564 18.8794 64.5472 19.3425C65.6876 20.4188 66.0621 21.4416 65.8136 22.4118C65.6236 23.1535 64.908 23.9179 63.6345 23.175C63.2633 22.9582 63.1048 22.7908 62.7316 22.5464C62.5311 22.4151 62.2249 22.3759 62.0413 22.5134C61.5645 22.8709 61.2918 23.3256 61.1361 23.8886C60.9846 24.4364 61.5363 24.726 62.1082 24.9792C62.6007 25.1972 63.6591 25.3948 64.3341 25.4173C66.9641 25.5047 69.0709 24.1545 70.5375 20.6717C70.8001 23.6796 71.9174 25.3816 73.8587 25.3816C75.1565 25.3816 76.4577 23.7135 77.0268 22.0724C77.1901 22.7413 77.4319 23.3231 77.7442 23.815C79.2401 26.1717 82.1419 25.6645 83.5996 23.6632C84.0502 23.0448 84.1188 22.8226 84.1188 22.8226C84.3314 24.7123 85.8617 25.3725 86.738 25.3725C87.7193 25.3725 88.7325 24.9112 89.4427 23.3214C89.5259 23.494 89.6167 23.6587 89.7159 23.8149C91.2117 26.1717 94.1136 25.6644 95.5712 23.6632C95.64 23.5693 95.6996 23.4841 95.7517 23.4077L95.7945 24.6489C95.7945 24.6489 94.963 25.4075 94.4525 25.8728C92.206 27.9224 90.4977 29.4774 90.372 31.2882C90.2107 33.5971 92.0939 34.4553 93.5186 34.5677C95.0316 34.6871 96.3272 33.856 97.1236 32.6929C97.8241 31.6692 98.2826 29.4657 98.2489 27.2895C98.2355 26.4181 98.2135 25.31 98.1961 24.1223C98.9857 23.2105 99.8754 22.058 100.695 20.709C101.587 19.2389 102.544 17.2647 103.034 15.7283C103.034 15.7283 103.865 15.7353 104.752 15.6776C105.036 15.6592 105.117 15.7168 105.065 15.9236C105.002 16.1735 103.944 20.2291 104.909 22.9308C105.57 24.7803 107.059 25.3754 107.942 25.3754C108.975 25.3754 109.964 24.5993 110.493 23.4469C110.557 23.5753 110.624 23.6997 110.697 23.8144C112.193 26.1712 115.084 25.6609 116.552 23.6627C116.884 23.2118 117.072 22.8221 117.072 22.8221C117.387 24.7778 118.916 25.3819 119.792 25.3819C120.705 25.3819 121.571 25.0099 122.273 23.3567C122.303 24.0846 122.349 24.6798 122.422 24.8675C122.466 24.9822 122.726 25.1263 122.914 25.1959C123.749 25.5037 124.601 25.3581 124.916 25.2948C125.134 25.2509 125.304 25.0768 125.327 24.6273C125.388 23.447 125.351 21.464 125.711 19.9902C126.315 17.5168 126.878 16.5573 127.145 16.0824C127.295 15.8162 127.464 15.7723 127.47 16.054C127.482 16.6239 127.511 18.2974 127.745 20.5459C127.917 22.1996 128.146 23.177 128.323 23.4864C128.826 24.371 129.448 24.4129 129.954 24.4129C130.277 24.4129 130.95 24.3244 130.89 23.7614C130.861 23.487 130.912 21.7912 131.507 19.3544C131.896 17.7631 132.545 16.3253 132.779 15.7997C132.865 15.6058 132.905 15.7586 132.903 15.7884C132.854 16.8843 132.744 20.4688 133.193 22.4292C133.801 25.085 135.562 25.3821 136.175 25.3821C137.485 25.3821 138.556 24.3914 138.917 21.7847C139.004 21.1573 138.875 20.6729 138.49 20.6729" fill="#262626"/>
<defs>
<radialGradient id="paint0_radial_8_4820" cx="0" cy="0" r="1" gradientUnits="userSpaceOnUse" gradientTransform="translate(8.88446 35.2502) rotate(-90) scale(32.2072 29.9625)">
<stop stop-color="#FFDD55"/>
<stop offset="0.1" stop-color="#FFDD55"/>
<stop offset="0.5" stop-color="#FF543E"/>
<stop offset="1" stop-color="#C837AB"/>
</radialGradient>
<radialGradient id="paint1_radial_8_4820" cx="0" cy="0" r="1" gradientUnits="userSpaceOnUse" gradientTransform="translate(-5.19454 2.59105) rotate(78.678) scale(14.3969 59.3578)">
<stop stop-color="#3771C8"/>
<stop offset="0.128" stop-color="#3771C8"/>
<stop offset="1" stop-color="#6600FF" stop-opacity="0"/>
</radialGradient>
<clipPath id="clip0_8_4820">
<rect width="33" height="33" fill="white"/>
</clipPath>
</defs>
</svg>
