<svg width="112" height="25" viewBox="0 0 112 25" fill="none" xmlns="http://www.w3.org/2000/svg">
<path d="M34.9694 3.91396C34.7654 3.15778 34.3664 2.46835 33.8124 1.91456C33.2583 1.36076 32.5685 0.961998 31.812 0.758111C29.025 5.60457e-07 17.8566 0 17.8566 0C17.8566 0 6.68519 2.80229e-07 3.90411 0.746357C3.14588 0.95072 2.45487 1.35107 1.9006 1.90713C1.34634 2.46319 0.94836 3.15535 0.746717 3.91396C-1.96255e-06 6.69664 0 12.5059 0 12.5059C0 12.5059 -1.96255e-06 18.3151 0.746717 21.0978C0.950162 21.8542 1.34894 22.544 1.90309 23.0978C2.45724 23.6517 3.14729 24.0503 3.90411 24.2536C6.68813 25 17.8566 25 17.8566 25C17.8566 25 29.028 25 31.812 24.2536C32.5685 24.0498 33.2583 23.651 33.8124 23.0972C34.3664 22.5434 34.7654 21.854 34.9694 21.0978C35.7132 18.3151 35.7132 12.5059 35.7132 12.5059C35.7132 12.5059 35.7043 6.69664 34.9694 3.91396Z" fill="#FF0000"/>
<path d="M14.2847 17.8597L23.5657 12.5059L14.2847 7.15209V17.8597Z" fill="white"/>
<path d="M51.8411 22.7433C51.0896 22.206 50.5548 21.4183 50.3329 20.5219C49.9989 19.214 49.8486 17.8661 49.8861 16.5168V14.2425C49.8457 12.8711 50.0203 11.5019 50.4035 10.1845C50.6583 9.27665 51.2231 8.48657 51.9998 7.95134C52.8608 7.4478 53.8491 7.20391 54.8456 7.24906C56.0039 7.24906 56.9319 7.48707 57.6296 7.96309C58.3787 8.51295 58.9196 9.30005 59.1642 10.1963C59.5252 11.5136 59.6887 12.8772 59.6493 14.2425V16.5168C59.6878 17.8726 59.5284 19.2268 59.176 20.5366C58.9419 21.4337 58.3997 22.22 57.6443 22.758C56.9348 23.2242 55.9764 23.4583 54.7691 23.4603C53.5226 23.4603 52.5466 23.2213 51.8411 22.7433ZM55.7981 20.2927C55.9941 19.7853 56.0921 18.9518 56.0921 17.7921V12.929C56.0921 11.8036 55.9951 10.9838 55.7981 10.4637C55.7367 10.2374 55.6016 10.038 55.4142 9.89701C55.2268 9.756 54.9978 9.6814 54.7633 9.685C54.5326 9.68476 54.3084 9.76111 54.1259 9.90205C53.9434 10.043 53.8129 10.2406 53.7549 10.4637C53.5579 10.9838 53.4609 11.8036 53.4609 12.929V17.8038C53.4609 18.9616 53.5589 19.7951 53.7549 20.3044C53.8128 20.5289 53.9453 20.7271 54.1306 20.8664C54.316 21.0058 54.5432 21.078 54.775 21.0713C55.0078 21.0733 55.2346 20.9979 55.4198 20.8569C55.605 20.716 55.7381 20.5175 55.7981 20.2927Z" fill="#282828"/>
<path d="M106.087 16.5521V17.3366C106.076 18.0899 106.106 18.8432 106.175 19.5933C106.195 19.9868 106.323 20.3671 106.546 20.6923C106.654 20.8122 106.789 20.9056 106.939 20.9652C107.09 21.0248 107.252 21.049 107.413 21.0361C107.635 21.0572 107.858 21.01 108.053 20.9008C108.247 20.7915 108.403 20.6255 108.501 20.4249C108.697 20.0174 108.802 19.3367 108.818 18.3827L111.858 18.5619C111.878 18.7483 111.887 18.9357 111.884 19.1232C111.884 20.5689 111.492 21.6463 110.708 22.3554C109.915 23.0695 108.798 23.4279 107.348 23.4279C105.614 23.4279 104.394 22.8843 103.697 21.7942C103 20.704 102.65 19.0203 102.65 16.7401V14.0074C102.65 11.6567 103.012 9.9426 103.735 8.86518C104.458 7.78776 105.692 7.25297 107.436 7.26081C108.646 7.26081 109.574 7.48217 110.22 7.92489C110.907 8.42544 111.392 9.15503 111.588 9.98178C111.888 11.2529 112.02 12.5579 111.981 13.8634V16.5432L106.087 16.5521ZM106.534 9.96708C106.318 10.2892 106.194 10.6641 106.175 11.0514C106.105 11.8113 106.076 12.5744 106.087 13.3374V14.4599H108.665V13.3374C108.677 12.574 108.642 11.8106 108.562 11.0514C108.54 10.6584 108.412 10.2787 108.192 9.95239C108.086 9.84082 107.957 9.75438 107.814 9.69946C107.67 9.64453 107.516 9.62252 107.363 9.63504C107.208 9.62235 107.053 9.64574 106.909 9.70337C106.765 9.761 106.637 9.85128 106.534 9.96708Z" fill="#282828"/>
<path d="M43.2565 16.2582L39.2466 1.78656H42.7597L44.1649 8.34509C44.5236 9.96318 44.7872 11.3423 44.9557 12.4824H45.0586C45.1782 11.6655 45.4428 10.2942 45.8524 8.3686L47.3076 1.78362H50.806L46.7461 16.2553V23.2134H43.2565V16.2582Z" fill="#282828"/>
<path d="M71.0237 7.55465V23.2134H68.2632L67.9692 21.2976H67.8927C67.1441 22.7433 66.0201 23.4671 64.5207 23.4691C63.482 23.4691 62.7157 23.1282 62.2218 22.4465C61.7279 21.7648 61.481 20.7011 61.481 19.2554V7.55465H65.0088V19.0438C64.9764 19.5521 65.0547 20.0614 65.2381 20.5366C65.3075 20.6785 65.4174 20.7966 65.554 20.8761C65.6906 20.9556 65.8476 20.9929 66.0054 20.9832C66.3223 20.9767 66.6299 20.8742 66.8873 20.6894C67.1582 20.5139 67.3749 20.2667 67.5135 19.9753V7.55465H71.0237Z" fill="#282828"/>
<path d="M89.1006 7.55465V23.2134H86.343L86.049 21.2976H85.9755C85.2268 22.7433 84.1028 23.4671 82.6035 23.4691C81.5628 23.4691 80.7984 23.1282 80.3046 22.4465C79.8107 21.7648 79.5637 20.7011 79.5637 19.2554V7.55465H83.0915V19.0438C83.0592 19.5521 83.1374 20.0614 83.3208 20.5366C83.3899 20.6787 83.4998 20.7971 83.6365 20.8766C83.7731 20.9562 83.9303 20.9933 84.0881 20.9832C84.4052 20.9776 84.713 20.8751 84.9701 20.6894C85.2424 20.5156 85.4596 20.2679 85.5963 19.9753V7.55465H89.1006Z" fill="#282828"/>
<path d="M80.5986 4.61918H77.1002V23.2134H73.6517V4.61918H70.1533V1.78655H80.5986V4.61918Z" fill="#282828"/>
<path d="M100.766 10.0552C100.554 9.07088 100.207 8.3539 99.731 7.91314C99.1862 7.44554 98.4812 7.20747 97.7643 7.24906C97.1185 7.24846 96.4872 7.43972 95.9504 7.79854C95.3973 8.1558 94.9481 8.65241 94.6481 9.23836H94.6245V0.993183H91.2261V23.2134H94.1395L94.4952 21.7442H94.5716C94.8472 22.2729 95.2739 22.7076 95.7975 22.9931C96.3512 23.3032 96.9768 23.4623 97.6114 23.4544C98.1644 23.4731 98.7104 23.3262 99.1793 23.0324C99.6481 22.7387 100.018 22.3116 100.243 21.8059C100.805 20.7109 101.086 18.9968 101.086 16.6637V14.1866C101.118 12.8023 101.011 11.4181 100.766 10.0552ZM97.532 16.4404C97.546 17.3359 97.4989 18.2312 97.3909 19.1202C97.3533 19.612 97.1915 20.0862 96.9206 20.4984C96.815 20.6298 96.6805 20.735 96.5275 20.8059C96.3745 20.8767 96.2072 20.9113 96.0386 20.9068C95.7572 20.9091 95.4798 20.8393 95.2331 20.704C94.9836 20.5582 94.7799 20.3454 94.6451 20.0899V11.2071C94.7473 10.8082 94.9591 10.4459 95.2566 10.161C95.5062 9.90581 95.8462 9.75908 96.2032 9.75259C96.3659 9.74573 96.5275 9.78077 96.6727 9.85436C96.8179 9.92794 96.9417 10.0376 97.0323 10.1728C97.2758 10.6071 97.4156 11.0918 97.4409 11.5891C97.5297 12.5306 97.568 13.4761 97.5556 14.4217L97.532 16.4404Z" fill="#282828"/>
</svg>
